<svg xmlns="http://www.w3.org/2000/svg" viewBox="0 0 232.6 324.91"><defs><style>.cls-1{fill:white;}</style></defs><title>Asset 40</title><g id="Layer_2" data-name="Layer 2"><g id="Layer_1-2" data-name="Layer 1"><path class="cls-1" d="M2.87,203.77c12.39,19.73,53.57,39.87,67.77,27.84,17-14.39,4.59-32.45,4.59-32.45,15.35-4.93,22.23,6,23.36,9.84,1.78,5.93,4.08,12,6,14.69,8.15,11,18.72,8,24.81,4,18.85-12.38,32.37-22.07,32.37-22.07C176,196,184.2,191.46,193,190.64c18.27-1.69,24.49,7.83,24.49,7.83s-26.8,2.3-63.42,36.19c-7.48,6.92-22,21.46-26.66,26.43C114.49,274.8,88.5,297.41,49.19,273.4c0,0,28.6,14.52,54.57-3,12.27-8.3,15.81-19.69,15.94-19,0,0-43.8,28.63-86.81,8.1-4.22-2-34.39-15.22-30-55.72m164.54,42.57c38.21-20.3,57.64-20.79,57.64-20.79-18.12-16-35.72-5.53-42.55-2.38C167,230.33,133.65,265,133.65,265S159.7,250.44,167.41,246.34ZM174,258.42c28.21-6.73,40.9-3.78,40.9-3.78-9.06-13.43-22.24-9.61-27.2-8.71-11.26,2-38.73,18.9-38.73,18.9S168.29,259.78,174,258.42ZM84.1,183.06c12.45,1.05,21.6,16.35,25.5,22,12.33,17.73,27,4,32.71-.62,37.47-30.17,61.14-24.17,61.14-24.17,32.48-1.85,28.57-26.11,28.57-26.11S116.46,148.33.9,186.64h0c25.54,37.07,53.52,35.24,53.52,35.24,7.92,0,10.88-4.29,12.25-7.63,7.12-17.33-9.38-25.52-9.38-25.52C69.29,180.48,84.1,183.06,84.1,183.06ZM1.79,173.73h0c65-24.5,111-26.69,111-26.69V0C45.61,79.8,1.79,173.73,1.79,173.73ZM117,20.61s26.14,67.55,2.84,125.61c0,0,47-6,80.47-4.13C200.25,142.1,166.13,61.73,117,20.61ZM10.54,313a2.15,2.15,0,0,1,1.56-.65q1.82,0,1.82,2.48v5.88h3v-6.54a4.36,4.36,0,0,0-1.16-3.27,4.2,4.2,0,0,0-3.06-1.13,4.58,4.58,0,0,0-2.11.54,4.23,4.23,0,0,0-1.67,1.52,3.9,3.9,0,0,0-1.25-1.46,3.08,3.08,0,0,0-1.85-.6A3.72,3.72,0,0,0,3,311.13v-1.22H0v10.76H3v-5.8A2.54,2.54,0,0,1,3.67,313a2.15,2.15,0,0,1,1.54-.65,1.39,1.39,0,0,1,1.26.6,3.53,3.53,0,0,1,.39,1.88v5.88h3v-5.8A2.57,2.57,0,0,1,10.54,313Zm18.26.85a3.71,3.71,0,0,0-1.24-3.1,5,5,0,0,0-3.2-1,8,8,0,0,0-4.84,1.54l1.34,1.94a5.36,5.36,0,0,1,1.47-.77,4.93,4.93,0,0,1,1.65-.31q1.82,0,1.82,1.72v.06H23.56a5.74,5.74,0,0,0-3.28.82,2.79,2.79,0,0,0-1.2,2.47,3.3,3.3,0,0,0,1.16,2.64,4.27,4.27,0,0,0,2.87,1A3.53,3.53,0,0,0,26,319.37v1.3H28.8Zm-3.63,4.07a2.19,2.19,0,0,1-1.41.49,2.08,2.08,0,0,1-1.23-.31,1,1,0,0,1-.43-.89q0-1.12,1.8-1.12h1.88v.52A1.59,1.59,0,0,1,25.17,317.88Zm12.61-5.33,0-2.82a4,4,0,0,0-1.77.48,5,5,0,0,0-1.45,1.12v-1.42h-3v10.76h3V316a4.32,4.32,0,0,1,.66-2.51,2.27,2.27,0,0,1,2-1Zm3.48-3.5a1.74,1.74,0,1,0-1.25-.51A1.7,1.7,0,0,0,41.26,309.05Zm1.5.86h-3v10.76h3Zm6.51,2.85a2.19,2.19,0,0,1,1.57-.65q1.82,0,1.82,2.48v6.08h3v-6.54a4.43,4.43,0,0,0-1.15-3.2,3.79,3.79,0,0,0-2.85-1.2,4.2,4.2,0,0,0-3.06,1.38v-1.2h-3v10.76h3v-6A2.54,2.54,0,0,1,49.27,312.76Zm18.25,1a3.71,3.71,0,0,0-1.24-3.1,5,5,0,0,0-3.2-1,8,8,0,0,0-4.84,1.54l1.34,1.94a5.36,5.36,0,0,1,1.47-.77,4.94,4.94,0,0,1,1.65-.31q1.82,0,1.82,1.72v.06H62.28a5.74,5.74,0,0,0-3.28.82,2.79,2.79,0,0,0-1.2,2.47A3.3,3.3,0,0,0,59,319.84a4.27,4.27,0,0,0,2.87,1,3.54,3.54,0,0,0,2.87-1.46v1.3h2.82Zm-3.63,4.07a2.19,2.19,0,0,1-1.41.49,2.08,2.08,0,0,1-1.23-.31,1,1,0,0,1-.43-.89q0-1.12,1.8-1.12H64.5v.52A1.59,1.59,0,0,1,63.89,317.88Zm13.35-2.83a7.37,7.37,0,0,0-1-.53q-.43-.17-1.45-.49a8.94,8.94,0,0,1-1.46-.56.73.73,0,0,1-.44-.66q0-.76,1.39-.76A4.92,4.92,0,0,1,77,313l1.12-2a6.77,6.77,0,0,0-3.8-1.28,4.88,4.88,0,0,0-3.1.94,3,3,0,0,0-1.2,2.43,2.48,2.48,0,0,0,1.22,2.25,7.55,7.55,0,0,0,1.07.58q.47.2,1.36.48a5.33,5.33,0,0,1,1.36.6.88.88,0,0,1,.47.7.71.71,0,0,1-.34.61,1.62,1.62,0,0,1-.92.23,5.75,5.75,0,0,1-3.58-1.3l-1.32,1.88a7.39,7.39,0,0,0,2.34,1.27,8,8,0,0,0,2.5.43,4.53,4.53,0,0,0,3-1,3.13,3.13,0,0,0,1.17-2.55A2.45,2.45,0,0,0,77.24,315.05Zm11.7-3.94v-5.28h-3v14.84h3v-1.42a3.89,3.89,0,0,0,3.17,1.58,4.54,4.54,0,0,0,3.41-1.62,5.69,5.69,0,0,0,1.5-4,5.46,5.46,0,0,0-1.46-3.93,4.59,4.59,0,0,0-3.42-1.53A4.1,4.1,0,0,0,88.94,311.11Zm.69,2a2.25,2.25,0,0,1,1.79-.87,2.33,2.33,0,0,1,1.82.88,3.22,3.22,0,0,1,.76,2.18,3,3,0,0,1-.78,2.13,2.42,2.42,0,0,1-1.82.83,2.27,2.27,0,0,1-1.77-.83,3.12,3.12,0,0,1-.73-2.14A3.27,3.27,0,0,1,89.63,313.12Zm18.77-1.78a5.95,5.95,0,0,0-8.14,0,5.61,5.61,0,0,0,0,7.89,6,6,0,0,0,8.14,0,5.61,5.61,0,0,0,0-7.89Zm-6,1.79a2.62,2.62,0,0,1,3.84,0,3.12,3.12,0,0,1,.75,2.16,3.08,3.08,0,0,1-.75,2.15,2.64,2.64,0,0,1-3.84,0,3.08,3.08,0,0,1-.75-2.15A3.12,3.12,0,0,1,102.41,313.13Zm19,.68a3.71,3.71,0,0,0-1.24-3.1,5,5,0,0,0-3.2-1,8,8,0,0,0-4.84,1.54l1.34,1.94a5.36,5.36,0,0,1,1.47-.77,4.93,4.93,0,0,1,1.65-.31q1.82,0,1.82,1.72v.06h-2.24a5.74,5.74,0,0,0-3.28.82,2.79,2.79,0,0,0-1.2,2.47,3.3,3.3,0,0,0,1.16,2.64,4.27,4.27,0,0,0,2.87,1,3.54,3.54,0,0,0,2.87-1.46v1.3h2.82Zm-3.63,4.07a2.18,2.18,0,0,1-1.41.49,2.08,2.08,0,0,1-1.23-.31,1,1,0,0,1-.43-.89q0-1.12,1.8-1.12h1.88v.52A1.59,1.59,0,0,1,117.75,317.88Zm12.43-5.81v-2.16h-2.6v-3.22h-3v3.22H123.3v2.16h1.26v5a3.58,3.58,0,0,0,3.69,3.8,4.33,4.33,0,0,0,3-1.28l-1.12-2.1a1.73,1.73,0,0,1-1.42.76,1,1,0,0,1-.76-.35,1.38,1.38,0,0,1-.32-1v-4.82Zm9.6,3a7.42,7.42,0,0,0-1-.53q-.43-.17-1.45-.49a8.93,8.93,0,0,1-1.46-.56.73.73,0,0,1-.44-.66q0-.76,1.39-.76a4.92,4.92,0,0,1,2.79,1l1.12-2a6.77,6.77,0,0,0-3.8-1.28,4.88,4.88,0,0,0-3.1.94,3,3,0,0,0-1.2,2.43,2.48,2.48,0,0,0,1.22,2.25,7.49,7.49,0,0,0,1.07.58q.47.2,1.36.48a5.33,5.33,0,0,1,1.36.6.88.88,0,0,1,.47.7.71.71,0,0,1-.34.61,1.62,1.62,0,0,1-.92.23,5.74,5.74,0,0,1-3.58-1.3l-1.32,1.88a7.39,7.39,0,0,0,2.34,1.27,8,8,0,0,0,2.5.43,4.53,4.53,0,0,0,3-1,3.13,3.13,0,0,0,1.17-2.55A2.45,2.45,0,0,0,139.78,315.05Zm18.9,6.2,2-1.88-2-2a13.12,13.12,0,0,0,1.12-2.34l-2.34-1.68a8.41,8.41,0,0,1-.76,1.94q-.56-.62-1.68-2,2.86-1.68,2.86-3.64a2.84,2.84,0,0,0-1.19-2.43,4.73,4.73,0,0,0-2.87-.87,4.8,4.8,0,0,0-2.91.9,3,3,0,0,0-1.23,2.6,3.2,3.2,0,0,0,.3,1.43,7.58,7.58,0,0,0,1,1.41q-2.94,1.7-2.94,3.9a3.73,3.73,0,0,0,1.42,3.09,5.65,5.65,0,0,0,3.63,1.13,6,6,0,0,0,3.89-1.36Zm-7.7-4.54q0-1.1,1.54-2.06,1.06,1.26,2.52,2.8a3.2,3.2,0,0,1-2,.88,2.34,2.34,0,0,1-1.5-.46A1.42,1.42,0,0,1,151,316.71Zm3.64-7.68a1.08,1.08,0,0,1,.36.88q0,.7-1.5,1.5a3,3,0,0,1-.8-1.53A1.06,1.06,0,0,1,153,309a1.16,1.16,0,0,1,.79-.31A1.22,1.22,0,0,1,154.62,309Zm17.07,15.27a3.57,3.57,0,0,0,1.37-1.71l5-12.68h-3.2l-2.62,6.7-2.62-6.7h-3.2q4.16,10.5,4.16,11a1.45,1.45,0,0,1-.3.87.88.88,0,0,1-.72.41,2.25,2.25,0,0,1-1.56-.74l-1.36,2.22a4.36,4.36,0,0,0,3,1.28A3.69,3.69,0,0,0,171.69,324.3Zm16.85-10.49a3.71,3.71,0,0,0-1.24-3.1,5,5,0,0,0-3.2-1,8,8,0,0,0-4.84,1.54l1.34,1.94a5.35,5.35,0,0,1,1.47-.77,4.93,4.93,0,0,1,1.65-.31q1.82,0,1.82,1.72v.06H183.3a5.75,5.75,0,0,0-3.28.82,2.79,2.79,0,0,0-1.2,2.47,3.3,3.3,0,0,0,1.16,2.64,4.27,4.27,0,0,0,2.87,1,3.53,3.53,0,0,0,2.87-1.46v1.3h2.82Zm-3.63,4.07a2.18,2.18,0,0,1-1.41.49,2.08,2.08,0,0,1-1.23-.31,1,1,0,0,1-.43-.89q0-1.12,1.8-1.12h1.88v.52A1.59,1.59,0,0,1,184.91,317.88Zm9.54-.47a2.71,2.71,0,0,1-.85-2.13,2.74,2.74,0,0,1,.85-2.14,2.92,2.92,0,0,1,2-.77,3.59,3.59,0,0,1,1.49.34,3.55,3.55,0,0,1,1.27,1l1.56-2a6,6,0,0,0-2.09-1.42,6.24,6.24,0,0,0-2.35-.48,5.73,5.73,0,0,0-4,1.55,5.62,5.62,0,0,0,0,8,5.83,5.83,0,0,0,4.09,1.53,6.19,6.19,0,0,0,4.5-2.16l-1.78-2a3.44,3.44,0,0,1-2.7,1.5A2.89,2.89,0,0,1,194.45,317.41ZM206.59,313a2.18,2.18,0,0,1,1.57-.65q1.82,0,1.82,2.48v5.88h3v-6.54a4.41,4.41,0,0,0-1.16-3.2,3.81,3.81,0,0,0-2.85-1.2,4.19,4.19,0,0,0-3,1.38v-5.28h-3v14.84h3v-5.8A2.55,2.55,0,0,1,206.59,313Zm15.29-.89v-2.16h-2.6v-3.22h-3v3.22H215v2.16h1.26v5a3.58,3.58,0,0,0,3.69,3.8,4.33,4.33,0,0,0,3-1.28l-1.12-2.1a1.73,1.73,0,0,1-1.42.76,1,1,0,0,1-.76-.35,1.38,1.38,0,0,1-.32-1v-4.82Zm9.6,3a7.42,7.42,0,0,0-1-.53q-.43-.17-1.45-.49a8.93,8.93,0,0,1-1.46-.56.73.73,0,0,1-.44-.66q0-.76,1.39-.76a4.92,4.92,0,0,1,2.79,1l1.12-2a6.77,6.77,0,0,0-3.8-1.28,4.88,4.88,0,0,0-3.1.94,3,3,0,0,0-1.2,2.43,2.48,2.48,0,0,0,1.22,2.25,7.5,7.5,0,0,0,1.07.58q.47.2,1.36.48a5.33,5.33,0,0,1,1.36.6.88.88,0,0,1,.47.7.71.71,0,0,1-.34.61,1.62,1.62,0,0,1-.92.23,5.74,5.74,0,0,1-3.58-1.3l-1.32,1.88A7.39,7.39,0,0,0,226,320.4a8,8,0,0,0,2.5.43,4.53,4.53,0,0,0,3-1,3.13,3.13,0,0,0,1.17-2.55A2.45,2.45,0,0,0,231.48,315.05Z" /></g></g></svg>